<svg width="162" height="19" viewBox="0 0 162 19" fill="none" xmlns="http://www.w3.org/2000/svg">
<path d="M13.628 8.072L20 18.5H14.348L10.484 11.948L5.168 18.5H0.668V0.499999H5.624V11.828L14.492 0.499999H19.76L13.628 8.072ZM38.1948 4.076L27.5028 14.588H38.2668V18.5H20.8908V14.9L31.5828 4.388H20.9628V0.487999H38.1948V4.076ZM65.9979 8.276V11.948H39.7059V8.276H65.9979ZM84.1209 12.86V0.499999H88.9449V18.5H82.6809L73.8009 5.864V18.5H68.9649V0.499999H75.4089L84.1209 12.86ZM97.5892 11.312L97.0852 14.468H108.485V18.5H91.7452L93.1132 9.5L91.7452 0.499999H108.365V4.532H97.0852L97.5892 7.688H107.669V11.312H97.5892ZM132.931 13.844L136.699 0.499999H141.955L136.483 18.5H130.087L125.887 6.128L121.675 18.5H115.279L109.807 0.499999H115.087L118.843 13.832L123.259 0.499999H128.515L132.931 13.844ZM147.545 12.596C147.657 13.356 148.113 13.956 148.913 14.396C149.713 14.828 150.769 15.044 152.081 15.044C153.313 15.044 154.273 14.884 154.961 14.564C155.657 14.244 156.005 13.788 156.005 13.196C156.005 12.876 155.917 12.612 155.741 12.404C155.565 12.188 155.265 12.012 154.841 11.876C154.425 11.74 153.845 11.636 153.101 11.564L149.765 11.252C147.309 11.028 145.513 10.476 144.377 9.596C143.249 8.708 142.685 7.476 142.685 5.9C142.685 4.676 143.045 3.632 143.765 2.768C144.485 1.896 145.501 1.236 146.813 0.787999C148.133 0.331999 149.681 0.103999 151.457 0.103999C153.169 0.103999 154.701 0.351999 156.053 0.847999C157.405 1.344 158.473 2.04 159.257 2.936C160.049 3.832 160.485 4.868 160.565 6.044H155.501C155.413 5.396 155.005 4.888 154.277 4.52C153.557 4.144 152.585 3.956 151.361 3.956C150.225 3.956 149.333 4.108 148.685 4.412C148.045 4.716 147.725 5.148 147.725 5.708C147.725 6.148 147.925 6.492 148.325 6.74C148.725 6.98 149.425 7.152 150.425 7.256L154.013 7.604C155.717 7.764 157.081 8.04 158.105 8.432C159.129 8.824 159.873 9.36 160.337 10.04C160.801 10.72 161.033 11.58 161.033 12.62C161.033 13.868 160.657 14.968 159.905 15.92C159.153 16.864 158.093 17.596 156.725 18.116C155.357 18.636 153.777 18.896 151.985 18.896C150.137 18.896 148.501 18.636 147.077 18.116C145.653 17.588 144.541 16.848 143.741 15.896C142.941 14.944 142.521 13.844 142.481 12.596H147.545Z" fill="#5043D8"/>
</svg>
